<svg xmlns="http://www.w3.org/2000/svg" viewBox="0 0 248 248">
  <path fill="#00b3fe" fill-rule="evenodd" d="M222.3 8.6a6 6 0 0 0 3 0c.6-.3-.2-.5-1.8-.5s-2.2.3-1.2.5m16.9 15.8c0 1.7.2 2.2.5 1.2.2-1 .2-2.3 0-3-.3-.6-.5.2-.5 1.8M107 65.7l-37.5 37.7L107.2 66c35.1-34.8 38.2-38 37.5-38L107 65.7M66.5 49.8C63 52 12.4 102.6 13 103.3c.3.2 8.5 2.5 18.3 5.2l17.9 4.7L77 85.3C92.4 70 105 57.2 105 57c0-.7-31-9-33.6-9-1 0-3.3.9-4.9 2M182 140.6l-37.5 37.7 37.7-37.5c35.1-34.8 38.2-38 37.5-38L182 140.7M60 112.4a22.7 22.7 0 0 0-4 4.5c.4 0 2.6-2 5-4.5s4.2-4.5 4-4.5c-.4 0-2.6 2-5 4.5m56.7-.8c.7.3 1.9.3 2.5 0 .7-.3.2-.5-1.2-.5s-2 .2-1.3.5m-12.3 5.6-1.9 2.2 2.2-1.9c1.3-1 2.3-2 2.3-2.2 0-.8-.8-.3-2.6 1.9m26.1-.3c1 1.1 2 2 2.3 2 .3 0-.3-.9-1.3-2-1-1-2-2-2.3-2-.3 0 .3 1 1.3 2m-20.1 5.4c-2.6 2.6-3.4 4.2-3.4 7 0 7.4 4.3 11.6 11.6 11.6 5.4 0 10.4-5.3 10.4-11 0-3.4-.6-4.8-3.4-7.6s-4.2-3.4-7.6-3.4c-3.4 0-4.8.6-7.6 3.4M99.2 130c0 2 .2 2.7.5 1.8.2-1 .2-2.6 0-3.5-.3-1-.5-.2-.5 1.7m37 0c0 1.4.2 2 .5 1.3.2-.7.2-1.9 0-2.5-.3-.7-.5-.2-.5 1.2M54 141.4l-7.5 7.5 26.3 26.3L99 201.4l7.7-7.7 7.8-7.8-26-26A938 938 0 0 0 62 134c-.3 0-4 3.4-8 7.5m76.4 1.8-1.9 2.2 2.2-1.9c1.3-1 2.3-2 2.3-2.2 0-.8-.8-.3-2.6 1.9m32.2 27.6-27.9 28 4.8 18c2.7 10 5.1 18.1 5.5 18.1.3 0 12.5-12 27.2-26.7 17.7-17.8 26.9-27.7 27.4-29.6.4-2-.7-8-3.7-19.3A145 145 0 0 0 191 143c-.3 0-13 12.6-28.4 28m-46.4-22.3a7 7 0 0 0 3.5 0c1-.3.2-.5-1.7-.5-2 0-2.7.2-1.8.5m18.8 38.8a22.7 22.7 0 0 0-4 4.5c.4 0 2.6-2 5-4.5s4.2-4.5 4-4.5c-.4 0-2.6 2-5 4.5"/>
  <path fill="#4fcaff" fill-rule="evenodd" d="M182.2 7.9c-9.2 1.8-19 5.9-26.2 10.4A639.5 639.5 0 0 0 109.8 62l-41.6 41.2 16 14.4 16.5 17-.2-7.6c2.2-8.6 5.3-12 13.2-14a17 17 0 0 1 21.3 20.6c-2.2 8-5.7 11.1-14.2 13.3l-6.7.7 16.2 16.1 15.2 15.8 41-41.9 40.2-42.2 5.3-8.8c7.7-15.8 8.6-19.3 8.5-49 0-21-.7-27.7-1.9-28.9-2-2.1-46.3-2.6-56.1-.7m-21.8 27.3a42.3 42.3 0 0 0-24.3 63c3 4.8 8.9 10.4 13.6 13.4a40.7 40.7 0 0 0 38.8 2.7c27.3-12.8 34.3-45.7 14-67.4a42.2 42.2 0 0 0-41.7-11.7M58.3 112.7l-3.7 4.3 38.7 37.7 37.9 38 4.8-4.2 4.7-4.3-38.2-38.3c-20.4-20.3-36.3-38.4-38.3-39-2.1-.7-2.3 2.5-4.6 4.8"/>
  <path fill="#fee158" fill-rule="evenodd" stroke="null" d="M161.6 40.8a36.8 36.8 0 0 0-15.4 60.8 36.3 36.3 0 0 0 58-9.5c2.5-4.9 4.3-6.5 4.3-15.7 0-9-1.8-11-4.1-16a38.1 38.1 0 0 0-17.3-17.3 29.9 29.9 0 0 0-14.3-3.4c-4.7-.2-9.8.6-11.2 1.1m4.4 6.4c-14.3 2.9-23 14.4-22.8 29.2.1 8.8 1.5 14.5 7.4 20.4 6.3 6.3 12 8.3 20.6 8.4 27 .1 41-31.8 21.7-50.7-7-7-17.4-9.5-26.7-7.6"/>
  <ellipse cx="171.9" cy="76.1" fill="#ffb528" stroke="null" rx="30.1" ry="30.5"/>
  <path fill="#060a0c" fill-rule="evenodd" d="M184 1.4c-21.2 3.3-34.2 11-56.8 33.8l-15.3 15.4-17.7-4.8C75.5 40.7 70 40 64.7 42.3c-1.8.8-16.6 14.9-33 31.4C7 98.4 1.9 104 2.2 106c.3 2.2 2 2.8 23.1 8.5 22 5.9 23 6.3 26.8 10l4 4-9 9.1c-6.3 6.2-9.1 9.8-9.1 11.4 0 3.4 57.5 61 60.9 61 1.6 0 5.2-2.9 11.5-9l9.2-9 3.8 3.8c3.7 3.8 4.2 5.2 10 26.8 5.7 21.2 6.3 22.8 8.5 23.2 2 .2 7.6-4.9 32.4-29.5a459.6 459.6 0 0 0 31.3-33.1c2.3-5.3 1.6-10.8-3.4-29.5l-4.9-17.7 15.4-15.3c25.7-25.5 33-39.5 35-67.4.7-11.5-1.4-48.5-3-50C243.4 2 214.5-.1 200.9 0c-4.6 0-12.2.7-17 1.4M194 8a72.4 72.4 0 0 0-45 16.7 1213 1213 0 0 0-43.5 42.1l-36 36.1 15.3 15.3 15.2 15.2v-4.3c0-5 1.7-8.6 5.7-12.3 4.1-3.9 6.6-4.9 11.8-4.9a18 18 0 0 1 13.7 5.6c10.5 11.3 2.7 30.4-12.4 30.4h-4.3l15.3 15.3 15.2 15.2 36-36A1213 1213 0 0 0 223.3 99 72.3 72.3 0 0 0 240 54.3c.7-11-.6-43.4-1.7-44.6A288 288 0 0 0 194 8m-33 26.7a43 43 0 0 0-31.3 34.6 43 43 0 0 0 48.9 48.9c17.8-3 31.3-16 35.1-33.7A43.2 43.2 0 0 0 180.2 34a36 36 0 0 0-19.3.7m2 6.5a38 38 0 0 0-23.8 20.6c-2.2 4.7-2.6 7-2.6 14.1 0 7.2.4 9.4 2.8 14.6a38.5 38.5 0 0 0 18.2 18.1c5 2.4 7.3 3.3 14.5 3.3 7.1 0 9.4-1 14.2-3.1 8-3.8 15.7-11.3 18-17.7 2.4-6.5 3.7-9.5 3.7-15.5 0-5.9-.1-7.3-3.7-14.8a33 33 0 0 0-18-17.6 46 46 0 0 0-23.3-2m-96.4 8.6C63 52 12.4 102.6 13 103.3c.3.2 8.5 2.5 18.3 5.2l17.9 4.7L77 85.3C92.4 70 105 57.2 105 57c0-.7-31-9-33.5-9a12 12 0 0 0-5 2m102.8.6c-.3 1 0 2.6.6 3.7 1.2 1.8.4 2.9-8.2 11.5-8.8 8.8-9.5 9.3-11.6 8-1.5-1-2.6-1-3.8-.2-2.7 1.7-2.6 3 .5 6.6 3 3.3 3 3.4 1.1 5.7-2.5 3-2.4 4.8.2 6.2 1.7.9 2.5.7 4.5-1.2 2.3-2.1 2.6-2.2 4.1-.6 1.6 1.5 1.5 1.8-.1 3.6-2.2 2.4-1.7 6.5.7 7a6 6 0 0 0 4-1.7c2-1.8 2.5-1.9 4.7-.7 6.9 3.9 16.4-.7 17.6-8.4.5-2.9 1.3-4.1 3.9-5.5a12 12 0 0 0 6.2-12.7c-.5-3.6-.2-4.8 1.5-6.6 1.3-1.4 1.8-2.8 1.3-4.2-.8-2.7-4.6-2.7-7 0-1.4 1.4-2.1 1.6-3.2.8-1.7-1.5-1.7-3.3.2-4.9 2-1.7 1.9-5.6-.2-6.4-1-.4-2.9.2-4.6 1.5l-2.9 2.1-2.7-2.6c-3-3-5.9-3.3-6.8-1m3.4 14.2-3.8 3.9 5.5 5.1c5.7 5.4 8.4 6.3 11 3.6 2.7-2.6 1.8-5.4-3.7-11l-5.2-5.5-3.8 3.9m-12.5 12.5-3.2 3.4 6.4 6.1a26 26 0 0 0 8.4 6.2c2.5 0 5.2-2.5 5.2-4.8A63 63 0 0 0 164 74c-.4 0-2 1.5-3.8 3.3M60 112.4l-4.5 4.6 37.8 37.7 37.7 37.7 4.5-4.5 4.5-4.5-37.8-37.8L64.5 108l-4.5 4.5m50.4 10c-2.6 2.5-3.4 4.1-3.4 7 0 7.3 4.3 11.5 11.6 11.5 5.4 0 10.4-5.3 10.4-11 0-3.4-.6-4.8-3.4-7.6s-4.2-3.4-7.6-3.4c-3.4 0-4.8.6-7.6 3.4m-56.4 19-7.5 7.5 26.3 26.3L99 201.4l7.7-7.7 7.8-7.8-26-26A938 938 0 0 0 62 134c-.3 0-4 3.4-8 7.5m108.6 29.4-27.9 28 4.8 18c2.7 10 5.1 18.1 5.5 18.1.3 0 12.5-12 27.2-26.7 17.7-17.8 26.9-27.7 27.4-29.6.4-2-.7-8-3.7-19.3A145 145 0 0 0 191 143c-.3 0-13 12.6-28.4 28M24.2 186.1A145 145 0 0 0 10 201.6c0 1.5 2.8 4.3 4.2 4.3C16 206 44 177.7 44 176c0-2-2-4-4-4-.8 0-8 6.4-15.8 14.3m3 29c-15 15-27.2 28-27.2 28.8 0 2 2 4 4 4S60 194 60 192s-2-4-4-4c-.8 0-13.8 12.3-28.8 27.3m29 3A153 153 0 0 0 42 233.7c0 1.4 2.8 4.2 4.3 4.2 1.8 0 29.7-28.3 29.7-30 0-2-2-4-4-4-.9 0-8 6.5-15.8 14.3"/>
</svg>