<svg width="247.99999999999997" height="247.99999999999997" xmlns="http://www.w3.org/2000/svg" version="1.1">
 <g>
  <title>Layer 1</title>
  <path id="svg_1" fill-rule="evenodd" fill="#00b3fe" d="m222.269,8.60414c0.973,0.254 2.323,0.237 3,-0.037c0.677,-0.274 -0.119,-0.481 -1.769,-0.461c-1.65,0.02 -2.204,0.244 -1.231,0.498m16.926,15.807c0.02,1.65 0.244,2.204 0.498,1.231c0.254,-0.973 0.237,-2.323 -0.037,-3c-0.274,-0.677 -0.481,0.119 -0.461,1.769m-132.2,41.25l-37.495,37.75l37.75,-37.495c35.086,-34.849 38.2,-38.005 37.495,-38.005c-0.14,0 -17.128,16.987 -37.75,37.75m-40.495,-15.848c-3.515,2.219 -54.125,52.821 -53.455,53.445c0.25,0.233 8.481,2.571 18.29,5.196l17.835,4.773l27.915,-27.901c15.353,-15.346 27.915,-28.149 27.915,-28.451c0,-0.7 -30.946,-8.965 -33.55,-8.96c-1.073,0.002 -3.3,0.856 -4.95,1.898m115.495,90.848l-37.495,37.75l37.75,-37.495c35.086,-34.849 38.2,-38.005 37.495,-38.005c-0.14,0 -17.128,16.987 -37.75,37.75m-121.995,-28.25c-2.429,2.475 -4.191,4.5 -3.916,4.5c0.275,0 2.487,-2.025 4.916,-4.5c2.429,-2.475 4.191,-4.5 3.916,-4.5c-0.275,0 -2.487,2.025 -4.916,4.5m56.75,-0.838c0.688,0.278 1.813,0.278 2.5,0c0.688,-0.277 0.125,-0.504 -1.25,-0.504c-1.375,0 -1.937,0.227 -1.25,0.504m-12.345,5.588l-1.905,2.25l2.25,-1.905c1.237,-1.048 2.25,-2.06 2.25,-2.25c0,-0.8 -0.805,-0.209 -2.595,1.905m26.095,-0.25c0.995,1.1 2.035,2 2.31,2c0.275,0 -0.315,-0.9 -1.31,-2c-0.995,-1.1 -2.035,-2 -2.31,-2c-0.275,0 0.315,0.9 1.31,2m-20.1,5.4c-2.625,2.625 -3.4,4.232 -3.4,7.05c0,7.333 4.253,11.55 11.647,11.55c5.339,0 10.353,-5.327 10.353,-11c0,-3.443 -0.613,-4.813 -3.4,-7.6c-2.787,-2.787 -4.157,-3.4 -7.6,-3.4c-3.443,0 -4.813,0.613 -7.6,3.4m-11.168,7.6c0,1.925 0.206,2.713 0.457,1.75c0.252,-0.963 0.252,-2.537 0,-3.5c-0.251,-0.963 -0.457,-0.175 -0.457,1.75m36.926,0c0,1.375 0.227,1.938 0.504,1.25c0.278,-0.687 0.278,-1.812 0,-2.5c-0.277,-0.687 -0.504,-0.125 -0.504,1.25m-82.169,11.511l-7.462,7.512l26.234,26.233l26.233,26.234l7.746,-7.746l7.745,-7.745l-25.985,-25.999c-14.292,-14.3 -26.225,-26 -26.518,-26c-0.293,0 -3.89,3.38 -7.993,7.511m76.416,1.739l-1.905,2.25l2.25,-1.905c1.238,-1.048 2.25,-2.06 2.25,-2.25c0,-0.8 -0.805,-0.209 -2.595,1.905m32.187,27.658l-27.895,27.908l4.834,18.092c2.658,9.951 5.1,18.092 5.426,18.092c0.326,0 12.588,-12.038 27.25,-26.75c17.718,-17.78 26.89,-27.698 27.353,-29.578c0.48,-1.949 -0.652,-7.93 -3.641,-19.25c-2.385,-9.032 -4.583,-16.422 -4.884,-16.422c-0.302,0 -13.101,12.559 -28.443,27.908m-46.342,-22.219c0.963,0.252 2.537,0.252 3.5,0c0.963,-0.251 0.175,-0.457 -1.75,-0.457c-1.925,0 -2.713,0.206 -1.75,0.457m18.75,38.811c-2.429,2.475 -4.191,4.5 -3.916,4.5c0.275,0 2.487,-2.025 4.916,-4.5c2.429,-2.475 4.191,-4.5 3.916,-4.5c-0.275,0 -2.487,2.025 -4.916,4.5"/>
  <path id="svg_2" fill-rule="evenodd" fill="#4fcaff" d="m182.17846,7.86419c-9.205,1.807 -19.022,5.92654 -26.197,10.45454c-3.67,2.318 -20.75477,18.25223 -46.21577,43.64023l-41.53817,41.2624l15.97749,14.39577l16.4608,16.96812l-0.17295,-7.54935c2.198,-8.59 5.32214,-11.95614 13.22014,-14.08314c12.939,-3.484 24.74137,7.77705 21.26737,20.68205c-2.14,7.946 -5.65891,11.09914 -14.16791,13.27614l-6.68272,0.65591l16.17526,16.14926l15.21063,15.82872l40.93223,-41.90609l40.28914,-42.22763l5.27309,-8.85691c7.668,-15.731 8.63232,-19.27709 8.50332,-48.96909c-0.09,-21.01 -0.70054,-27.70172 -1.86954,-28.87072c-2.134,-2.134 -46.38186,-2.60646 -56.14386,-0.68946m-21.76877,27.2998c-11.913,3.286 -21.69437,11.75114 -27.17937,23.47114c-5.8,12.395 -4.56623,28.03268 2.82977,39.62268c2.997,4.696 8.89723,10.27468 13.59323,13.27168c11.59,7.396 26.42383,8.469 38.81883,2.669c27.269,-12.761 34.34777,-45.6806 14.07677,-67.3526c-10.724,-11.465 -27.11168,-15.73691 -41.81768,-11.68191m-102.75803,77.37505l-3.70868,4.272l38.70395,37.72932l37.90009,38.05086l4.77454,-4.21546l4.77454,-4.37623l-38.25817,-38.26817c-20.334,-20.339 -36.25337,-38.42795 -38.32186,-39.07103c-2.06849,-0.64309 -2.27223,2.56509 -4.57823,4.91409"/>
  <path stroke="null" id="svg_3" fill-rule="evenodd" fill="#fee158" d="m161.59109,40.80779c-26.23108,8.54923 -34.55044,41.48884 -15.35757,60.80172c17.30382,17.41201 46.41496,12.63777 57.96583,-9.50737c2.54495,-4.8791 4.28272,-6.47978 4.29191,-15.71265c0.01022,-8.94092 -1.7817,-11.01757 -4.08656,-15.93471c-3.38476,-7.22099 -10.11646,-13.98759 -17.27216,-17.3637c-4.44727,-2.09824 -7.43052,-3.23142 -14.30322,-3.41544c-4.77625,-0.12747 -9.83346,0.67364 -11.23824,1.13215m4.43808,6.34974c-14.34613,2.89292 -22.96895,14.40342 -22.79936,29.23196c0.10114,8.82372 1.48235,14.51331 7.38652,20.44616c6.27196,6.3009 11.91506,8.26593 20.55011,8.32349c27.07088,0.17991 40.98856,-31.74894 21.78138,-50.66807c-7.13832,-7.03081 -17.43497,-9.48589 -26.78825,-7.59943"/>
  <ellipse stroke="null" ry="30.48781" rx="30.0813" id="svg_6" cy="76.12251" cx="171.94309" fill="#ffb528"/>
  <path id="svg_5" fill-rule="evenodd" fill="#060a0c" d="m183.984,1.43314c-21.2,3.307 -34.202,11.03 -56.798,33.739l-15.315,15.391l-17.685,-4.81c-18.656,-5.073 -24.223,-5.724 -29.468,-3.442c-1.77,0.77 -16.646,14.875 -33.058,31.346c-24.651,24.739 -29.78,30.36 -29.5,32.328c0.316,2.215 1.945,2.813 23.174,8.504c21.945,5.882 22.989,6.274 26.783,10.068l3.948,3.948l-9.032,9.102c-6.194,6.241 -9.033,9.835 -9.033,11.434c0,3.369 57.532,60.87 60.904,60.87c1.632,0 5.208,-2.787 11.535,-8.992l9.17,-8.993l3.83,3.922c3.626,3.714 4.155,5.134 9.966,26.743c5.704,21.213 6.304,22.844 8.52,23.16c1.969,0.28 7.584,-4.843 32.329,-29.5c16.471,-16.412 30.576,-31.288 31.346,-33.058c2.282,-5.245 1.631,-10.812 -3.442,-29.468l-4.81,-17.685l15.391,-15.315c25.612,-25.484 32.868,-39.508 34.879,-67.407c0.826,-11.47 -1.36,-48.475 -2.958,-50.052c-1.28,-1.263 -30.208,-3.415 -43.788,-3.258c-4.605,0.053 -12.204,0.694 -16.888,1.425m10.016,6.59c-18.686,1.089 -31.824,5.953 -45,16.658c-4.125,3.352 -23.698,22.325 -43.495,42.162l-35.996,36.069l15.246,15.245l15.245,15.246l0,-4.296c0,-4.988 1.675,-8.635 5.661,-12.324c4.145,-3.836 6.655,-4.872 11.805,-4.872c5.666,0 10.197,1.858 13.72,5.627c10.545,11.277 2.76,30.373 -12.382,30.373l-4.296,0l15.246,15.245l15.245,15.246l36.069,-35.996c19.837,-19.797 38.81,-39.37 42.162,-43.495c10.608,-13.056 15.499,-26.165 16.643,-44.61c0.684,-11.024 -0.533,-43.45 -1.673,-44.59c-1.145,-1.145 -32.784,-2.353 -44.2,-1.688m-33.051,26.714c-16.128,4.21 -28.341,17.738 -31.227,34.587c-4.797,28.006 20.859,53.662 48.865,48.865c17.819,-3.052 31.267,-15.945 35.112,-33.66c1.425,-6.568 1.503,-8.817 0.505,-14.636c-3.15,-18.368 -16.187,-32.12 -34.003,-35.867c-7.09,-1.492 -11.431,-1.331 -19.252,0.711m1.98,6.478c-10.398,2.948 -19.027,10.41 -23.794,20.576c-2.201,4.695 -2.634,7.019 -2.63,14.12c0.004,7.206 0.434,9.43 2.824,14.61c3.527,7.646 10.356,14.444 18.171,18.09c5.092,2.376 7.286,3.32493 14.5,3.32493c7.115,0 9.425,-0.95893 14.175,-3.18493c7.946,-3.725 15.70193,-11.28507 18.075,-17.696c2.37307,-6.41093 3.6437,-9.4965 3.6437,-15.40647c0,-5.90996 -0.13594,-7.35671 -3.6437,-14.88153c-3.50776,-7.52482 -9.04117,-13.87194 -17.96813,-17.56147c-8.92696,-3.68953 -20.69987,-2.74253 -23.35287,-1.99053m-96.429,8.598c-3.515,2.219 -54.125,52.821 -53.455,53.445c0.25,0.233 8.481,2.571 18.29,5.196l17.835,4.773l27.915,-27.901c15.353,-15.346 27.915,-28.149 27.915,-28.451c0,-0.7 -30.946,-8.965 -33.55,-8.96c-1.073,0.002 -3.3,0.856 -4.95,1.898m102.811,0.73c-0.345,0.898 -0.061,2.538 0.63,3.645c1.143,1.83 0.398,2.871 -8.197,11.467c-8.84,8.839 -9.594,9.366 -11.603,8.112c-1.569,-0.98 -2.602,-1.055 -3.835,-0.277c-2.705,1.706 -2.597,3.019 0.54,6.593c2.935,3.342 2.941,3.373 1.052,5.705c-2.456,3.033 -2.4,4.784 0.196,6.173c1.735,0.929 2.512,0.729 4.521,-1.158c2.262,-2.125 2.539,-2.167 4.089,-0.617c1.55,1.55 1.543,1.795 -0.101,3.611c-2.18,2.409 -1.749,6.47 0.736,6.944c1.012,0.193 2.812,-0.557 4,-1.667c1.935,-1.807 2.422,-1.872 4.661,-0.626c6.894,3.838 16.366,-0.72 17.606,-8.472c0.46,-2.881 1.336,-4.118 3.892,-5.494c4.659,-2.509 6.951,-7.186 6.214,-12.679c-0.478,-3.561 -0.205,-4.802 1.444,-6.557c1.367,-1.456 1.816,-2.847 1.371,-4.25c-0.855,-2.693 -4.624,-2.741 -7.024,-0.089c-1.378,1.524 -2.126,1.732 -3.155,0.878c-1.767,-1.467 -1.709,-3.329 0.152,-4.874c2.023,-1.679 1.903,-5.631 -0.195,-6.437c-1.014,-0.389 -2.86,0.211 -4.593,1.492l-2.897,2.142l-2.712,-2.599c-3.091,-2.961 -5.875,-3.357 -6.792,-0.966m3.407,14.143l-3.782,3.875l5.472,5.175c5.697,5.388 8.364,6.26 11.021,3.604c2.675,-2.676 1.771,-5.397 -3.679,-11.067l-5.25,-5.461l-3.782,3.874m-12.544,12.545l-3.218,3.321l6.435,6.179c3.541,3.4 7.343,6.18 8.451,6.18c2.462,0 5.158,-2.535 5.158,-4.85c0,-1.496 -11.698,-14.15 -13.081,-14.15c-0.29,0 -1.975,1.494 -3.745,3.32m-100.176,35.182l-4.454,4.539l37.722,37.722l37.722,37.722l4.502,-4.501l4.502,-4.502l-37.77,-37.76l-37.769,-37.759l-4.455,4.539m50.402,9.898c-2.625,2.625 -3.4,4.232 -3.4,7.05c0,7.333 4.253,11.55 11.647,11.55c5.339,0 10.353,-5.327 10.353,-11c0,-3.443 -0.613,-4.813 -3.4,-7.6c-2.787,-2.787 -4.157,-3.4 -7.6,-3.4c-3.443,0 -4.813,0.613 -7.6,3.4m-56.411,19.111l-7.462,7.512l26.234,26.233l26.233,26.234l7.746,-7.746l7.745,-7.745l-25.985,-25.999c-14.292,-14.3 -26.225,-26 -26.518,-26c-0.293,0 -3.89,3.38 -7.993,7.511m108.603,29.397l-27.895,27.908l4.834,18.092c2.658,9.951 5.1,18.092 5.426,18.092c0.326,0 12.588,-12.038 27.25,-26.75c17.718,-17.78 26.89,-27.698 27.353,-29.578c0.48,-1.949 -0.652,-7.93 -3.641,-19.25c-2.385,-9.032 -4.583,-16.422 -4.884,-16.422c-0.302,0 -13.101,12.559 -28.443,27.908m-138.355,15.355c-7.83,7.844 -14.237,14.787 -14.237,15.428c0,1.476 2.79,4.309 4.244,4.309c1.752,0 29.756,-28.239 29.756,-30.005c0,-2.033 -1.946,-3.995 -3.963,-3.995c-0.86,0 -7.97,6.418 -15.8,14.263m3.006,28.994c-14.984,14.991 -27.243,27.951 -27.243,28.8c0,1.985 1.965,3.943 3.957,3.943c2.025,0 56.043,-54.031 56.043,-56.057c0,-1.985 -1.965,-3.943 -3.957,-3.943c-0.856,0 -13.816,12.266 -28.8,27.257m28.962,3.07c-7.813,7.881 -14.205,14.823 -14.205,15.429c0,1.466 2.837,4.244 4.334,4.244c1.769,0 29.666,-28.27 29.666,-30.063c0,-1.994 -1.971,-3.937 -3.995,-3.937c-0.877,0 -7.987,6.447 -15.8,14.327"/>
 </g>

</svg>